<svg fill="none" height="1024" viewBox="0 0 1024 1024" width="1024" xmlns="http://www.w3.org/2000/svg" xmlns:xlink="http://www.w3.org/1999/xlink"><clipPath id="a"><path d="m166.5 261h771v502h-771z"/></clipPath><path d="m0 0h1024v1024h-1024z" fill="#f3efe3"/><g clip-path="url(#a)"><path d="m634.892 284.334c2.124-.002 4.72.045 6.778.406 11.675 2.066 22.049 8.681 28.822 18.385-5.764 15.959-18.495 38.966-25.87 57.283 39.095-7.295 83.481-15.838 122.594-21.263 6.393 4.07 16.318 12.612 13.994 21.172-5.185 5.833-48.653 11.451-59.997 13.381-29.89 5.068-59.737 10.438-89.523 16.112-5.969 24.285-54.12 140.731-38.36 160.093 17.626 9.225 51.691-47.186 62.249-57.507 26.017-5.634 55.393-10.302 81.864-15.219l103.232-20.056c24.078-4.772 49.977-10.366 74.219-13.461 6.69 4.662 17.73 15.879 12.776 24.323-16.231 9.08-169.887 33.245-194.917 37.595-25.022 4.348-64.135 10.745-64.156 10.749-16.79 24.889-49.053 72.396-85.003 59.896-43.472-15.118-31.81-59.319-25.954-94.878-9.207 4.815-20.046 7.969-29.95 10.985-11.668 43.225-37.941 106.894-92.462 102.555-40.365-8.952-48.649-34.317-49.727-71.563-9.877 3.647-19.552 7.818-28.982 12.498-19.076 66.252-63.473 209.954-157.559 188.538-28.678-6.528-35.004-38.555-26.726-63.483 20.8-62.643 84.381-101.067 139.008-131.374 4.658-11.349 12.544-42.451 16.089-55.069 9.76-34.037 19.209-68.164 28.345-102.373-15.07 4.985-29.969 11.694-44.878 17.251-20.808 7.756-29.806-12.275-34.92-28.777 6.226-3.137 14.593-5.32 20.948-8.063 22.652-9.776 58.049-19.698 78.096-32.642.689.216 1.375.437 2.061.665 13.677 4.542 27.827 12.466 34.459 25.733-6.093 22.853-13.248 45.603-19.785 68.369l-24.885 89.927c9.249-3.174 17.08-6.515 26.081-10.38 5.533-20.944 21.938-50 41.041-61.42 4.017 1.217 9.167 3.262 13.209 4.733 5.388-14.633 16.92-27.745 33.409-27.527 39.521.522 49.399 23.757 50.087 57.561 11.752-4.377 27.389-11.907 36.708-20.328 5.104-15.547 9.938-31.627 14.846-47.275-13.902 2.632-26.596 7.82-40.459 9.524-9.449 1.159-19.221-12.31-16.629-20.108 5.56-7.481 57.457-16.688 68.001-18.829 6.916-14.523 29.97-78.323 41.826-86.139zm-336.816 281.031c-39.65 22.826-86.909 58.518-100.657 104.95-2.251 7.601-3.464 19.597.798 26.781.389.662.809 1.306 1.255 1.932 6.476 2.735 12.886 2.208 19.343-.584 30.98-13.403 50.934-54.631 63.508-83.624 4.402-10.152 15.302-39.047 16.641-48.261zm152.721-94.633c-16.732 24.822-28.554 54.31-24.081 84.549 3.428 23.183 22.363 13.713 33.608 3.109 20.378-21.402 26.607-34.214 36.019-62.077-18.062-3.018-27.374-6.169-39.731-19.929-1.135-1.264-4.444-5.088-5.815-5.652zm40.285-37.165c-6.746 3.425-11.463 6.844-13.915 14.474-1.581 4.827-1.134 10.09 1.241 14.583 2.707 5.198 6.917 8.034 12.214 10.241 3.41.538 7.314 1.603 10.376.304 5.896-8.543 1.997-36.178-9.916-39.602z" fill="#9b2673"/></g></svg>